<svg xmlns="http://www.w3.org/2000/svg" viewBox="0 0 157.324 25" fill="currentColor">
  <path d="M63.037,22.218L53.518,1.438c-.385-.941-1.089-1.438-2.037-1.438h-.134c-.953,0-1.628.466-2.063,1.422l-9.523,20.824c-.141.284-.209.574-.209.887,0,.9.732,1.632,1.632,1.632.754,0,1.362-.426,1.662-1.157l2.336-5.216h12.331l2.333,5.146c.341.78.96,1.227,1.697,1.227.937,0,1.699-.762,1.699-1.699,0-.243-.068-.525-.206-.847M56.091,15.127h-9.487l4.743-10.547,4.743,10.547Z"/>
  <path d="M67.782.1c-.939,0-1.733.809-1.733,1.767v21.132c0,.957.794,1.766,1.733,1.766.974,0,1.767-.792,1.767-1.766V1.867c0-.974-.792-1.767-1.767-1.767"/>
  <path d="M102.195,6.038c-2.529,0-4.518,1.006-6.059,3.072-1.202-1.987-3.171-3.072-5.613-3.072-2.536,0-4.1,1.15-5.177,2.429v-.494c0-.972-.761-1.733-1.733-1.733-.937,0-1.7.777-1.7,1.733v15.061c0,.972.761,1.733,1.733,1.733s1.699-.745,1.699-1.733v-8.755c0-2.922,1.853-5.043,4.405-5.043,2.528,0,4.036,1.772,4.036,4.74v9.057c0,.972.747,1.733,1.699,1.733.972,0,1.733-.761,1.733-1.733v-8.855c0-3.414,2.179-4.942,4.338-4.942,2.624,0,4.07,1.707,4.07,4.808v8.99c0,.972.761,1.733,1.733,1.733.953,0,1.7-.761,1.7-1.733v-9.593c0-4.565-2.63-7.402-6.865-7.402"/>
  <path d="M125.033,8.208c-1.351-1.351-3.337-2.036-5.902-2.036-2.099,0-3.899.373-5.826,1.204-.468.187-.972.726-.972,1.468,0,.83.717,1.532,1.565,1.532.194,0,.417-.047.643-.138,1.407-.63,2.82-.935,4.321-.935,2.163,0,4.741.747,4.741,4.305v.048c-1.234-.32-2.78-.607-4.909-.607-4.834,0-7.837,2.309-7.837,6.026v.067c0,3.824,3.47,5.825,6.898,5.825,2.786,0,4.651-1.106,5.848-2.287v.453c0,.931.716,1.632,1.666,1.632s1.666-.731,1.666-1.699v-9.493c0-2.298-.64-4.103-1.902-5.365M123.637,16.444v1.355c0,2.435-2.312,4.271-5.378,4.271-1.896,0-3.936-.948-3.936-3.03v-.067c0-1.981,1.735-3.164,4.64-3.164,1.572,0,3.104.208,4.674.635"/>
  <path d="M138.183,21.467c-.119,0-.238.031-.389.071-.249.065-.626.164-1.188.164-1.701,0-2.493-.782-2.493-2.46v-9.705h4.07c.881,0,1.599-.702,1.599-1.565,0-.848-.732-1.565-1.599-1.565h-4.07v-3.667c0-.939-.794-1.733-1.733-1.733-.953,0-1.7.761-1.7,1.733v3.667h-.984c-.848,0-1.565.717-1.565,1.565,0,.834.731,1.565,1.565,1.565h.984v10.041c0,3.382,1.94,5.322,5.322,5.322,1.013,0,1.874-.159,2.702-.498.623-.239,1.01-.777,1.01-1.403,0-.845-.687-1.532-1.532-1.532"/>
  <path d="M157.324,15.25c0-4.578-2.911-9.213-8.475-9.213-4.903,0-8.743,4.15-8.743,9.448v.067c0,5.386,3.903,9.448,9.079,9.448,2.755,0,4.863-.843,6.821-2.721.353-.309.548-.72.548-1.158,0-.844-.702-1.532-1.565-1.532-.356,0-.687.131-1.026.414-1.408,1.296-2.904,1.9-4.71,1.9-2.928,0-5.138-1.998-5.622-5.02h12.062c.9,0,1.632-.732,1.632-1.632M153.841,14.121h-10.213c.472-2.999,2.539-5.054,5.153-5.054,3.226,0,4.71,2.531,5.06,5.054"/>
  <path d="M0,19.42c.042-2.268,1.334-3.995,3.53-4.673.895-.276,1.827-.44,2.707-.754,2.278-.812,3.351-2.697,2.902-5.064-.175-.92-.484-1.814-.665-2.733-.566-2.863,1.004-5.324,3.796-5.998,2.628-.635,5.25.865,5.999,3.433.8,2.742-.555,5.332-3.31,6.287-1.095.38-2.246.623-3.303,1.084-1.797.784-2.862,2.626-2.691,4.395.167,1.722,1.442,3.195,3.166,3.566,1.556.335,2.923-.177,4.11-1.155.757-.623,1.412-1.369,2.154-2.012,2.182-1.892,5.155-1.753,7.101.305,1.829,1.934,1.814,5.003-.033,6.926-1.944,2.024-4.825,2.172-7.002.328-.715-.606-1.347-1.307-2.05-1.928-1.933-1.706-4.109-1.717-6.031-.017-.634.561-1.185,1.216-1.799,1.801-1.574,1.5-3.681,1.884-5.577,1.039C1.127,23.413-.039,21.538,0,19.42"/>
</svg>
